<?xml version="1.0" standalone="no"?>
<!DOCTYPE svg PUBLIC "-//W3C//DTD SVG 20010904//EN"
 "http://www.w3.org/TR/2001/REC-SVG-20010904/DTD/svg10.dtd">
<svg version="1.0" xmlns="http://www.w3.org/2000/svg"
 width="500.000000pt" height="500.000000pt" viewBox="0 0 500.000000 500.000000"
 preserveAspectRatio="xMidYMid meet">
<metadata>
Created by potrace 1.14, written by Peter Selinger 2001-2017
</metadata>
<g transform="translate(0.000000,500.000000) scale(0.100000,-0.100000)"
fill="#000000" stroke="none">
<path d="M3027 4944 c-1 -1 -42 -4 -92 -8 -248 -18 -496 -84 -725 -193 -82
-40 -260 -144 -301 -177 -15 -12 -39 -30 -55 -41 -181 -129 -399 -363 -530
-572 -99 -156 -217 -435 -239 -564 -3 -19 -12 -61 -20 -94 -18 -83 -27 -141
-40 -290 -6 -58 -6 -358 -1 -395 2 -14 7 -63 10 -110 4 -46 9 -87 11 -90 1 -3
6 -27 9 -55 4 -27 12 -70 17 -95 6 -25 12 -52 14 -60 41 -194 150 -458 260
-631 164 -256 395 -483 653 -642 208 -127 481 -229 702 -262 24 -4 47 -8 50
-10 3 -2 40 -6 83 -10 43 -3 88 -8 100 -11 28 -6 344 -6 417 0 58 5 141 15
175 22 11 3 36 7 55 10 184 29 460 139 618 245 206 140 447 393 566 596 120
204 175 472 118 565 -37 59 -125 89 -202 68 -34 -9 -63 -31 -139 -109 -169
-171 -336 -257 -616 -316 -16 -4 -95 -8 -175 -10 -159 -5 -287 13 -410 55
-222 77 -423 237 -568 452 l-32 47 162 92 c198 112 207 117 283 159 33 18 125
70 205 115 80 45 201 114 270 152 69 39 143 80 165 93 52 29 589 331 637 358
175 98 271 214 313 377 21 80 21 240 0 340 -49 237 -178 435 -424 648 -162
141 -470 273 -741 316 -36 6 -76 13 -90 15 -75 13 -481 29 -493 20z m98 -442
c123 -38 221 -131 296 -282 108 -219 166 -515 136 -693 -19 -107 -80 -217
-159 -287 -22 -19 -224 -146 -449 -281 l-408 -247 -15 47 c-35 111 -48 166
-81 356 -3 17 -8 59 -11 95 -3 36 -8 72 -11 80 -13 39 -11 449 3 545 50 352
218 606 443 671 50 14 204 12 256 -4z"/>
</g>
</svg>
